<svg width="22" height="13" fill="none" xmlns="http://www.w3.org/2000/svg"><path fill-rule="evenodd" clip-rule="evenodd" d="M21.176 1.023c.148-.495 0-.858-.706-.858h-2.334c-.593 0-.867.314-1.015.66 0 0-1.187 2.893-2.868 4.772-.544.544-.792.717-1.088.717-.149 0-.363-.173-.363-.667V1.023c0-.594-.173-.858-.667-.858H8.467c-.37 0-.594.275-.594.536 0 .563.841.693.928 2.275v3.437c0 .754-.136.89-.433.89-.791 0-2.716-2.906-3.857-6.23C4.287.425 4.063.164 3.466.164H1.132c-.667 0-.8.314-.8.66 0 .618.791 3.684 3.684 7.74 1.929 2.768 4.646 4.27 7.119 4.27 1.483 0 1.667-.334 1.667-.908V9.834c0-.667.14-.8.61-.8.346 0 .94.173 2.324 1.508 1.583 1.582 1.843 2.293 2.734 2.293h2.334c.666 0 1-.334.807-.992-.21-.656-.966-1.607-1.968-2.735-.544-.643-1.36-1.335-1.607-1.681-.346-.445-.248-.643 0-1.038 0 0 2.843-4.006 3.14-5.366Z" fill="#fff"/></svg>